<svg width="45" height="45" viewBox="0 0 45 45" fill="none" xmlns="http://www.w3.org/2000/svg">
<path d="M45 22.5C45 34.9264 34.9264 45 22.5 45C10.0736 45 0 34.9264 0 22.5C0 10.0736 10.0736 0 22.5 0C34.9264 0 45 10.0736 45 22.5Z" fill="#FB95C8"/>
<path d="M27 15C27 13.9 27.9 13 29 13C30.1 13 31 13.9 31 15C31 16.1 30.1 17 29 17C27.9 17 27 16.1 27 15ZM31 33V27H33.5L31 19.4C30.7 18.6 30 18 29.1 18H29C28.1 18 27.4 18.6 27.1 19.4L26.2 22C27.3 22.6 28 23.7 28 25.1V33.1H31M23.5 22.5C24.3 22.5 25 21.8 25 21C25 20.2 24.3 19.5 23.5 19.5C22.7 19.5 22 20.2 22 21C22 21.8 22.7 22.5 23.5 22.5ZM16.5 17C17.6 17 18.5 16.1 18.5 15C18.5 13.9 17.6 13 16.5 13C15.4 13 14.5 13.9 14.5 15C14.5 16.1 15.4 17 16.5 17ZM18.5 33V26H20V20C20 18.9 19.1 18 18 18H15C13.9 18 13 18.9 13 20V26H14.5V33H18.5ZM25 33V29H26V25C26 24.2 25.3 23.5 24.5 23.5H22.5C21.7 23.5 21 24.2 21 25V29H22V33H25Z" fill="#EEEEEE"/>
</svg>
