<svg width="45" height="45" viewBox="0 0 45 45" fill="none" xmlns="http://www.w3.org/2000/svg">
<path d="M45 22.5C45 34.9264 34.9264 45 22.5 45C10.0736 45 0 34.9264 0 22.5C0 10.0736 10.0736 0 22.5 0C34.9264 0 45 10.0736 45 22.5Z" fill="#8A2BE2"/>
<path d="M24.14 25.57L25.57 24.14L32.01 30.58L30.58 32.01L24.14 25.57ZM28.43 19.84L31.29 16.98C27.34 13.01 20.94 13.01 17.01 16.96C20.92 15.66 25.3 16.71 28.43 19.84ZM16.96 17.01C13.01 20.94 13.01 27.34 16.98 31.29L19.84 28.43C16.71 25.3 15.66 20.92 16.96 17.01ZM16.98 16.97L16.97 16.98C16.59 20.01 18.14 23.86 21.27 27.01L27.01 21.27C23.87 18.14 20.01 16.59 16.98 16.97Z" fill="#EEEEEE"/>
</svg>
