<svg width="45" height="45" viewBox="0 0 45 45" fill="none" xmlns="http://www.w3.org/2000/svg">
<circle cx="22.5" cy="22.5" r="22.5" fill="#4169E1"/>
<path d="M27 17H17L12 23V26H14C14 26.7956 14.3161 27.5587 14.8787 28.1213C15.4413 28.6839 16.2044 29 17 29C17.7956 29 18.5587 28.6839 19.1213 28.1213C19.6839 27.5587 20 26.7956 20 26H26C26 26.7956 26.3161 27.5587 26.8787 28.1213C27.4413 28.6839 28.2044 29 29 29C29.7956 29 30.5587 28.6839 31.1213 28.1213C31.6839 27.5587 32 26.7956 32 26H34V23C34 21.89 33.11 21 32 21H30L27 17ZM17.5 18.5H21.5V21H15.5L17.5 18.5ZM23 18.5H26.5L28.46 21H23V18.5ZM17 24.5C17.3978 24.5 17.7794 24.658 18.0607 24.9393C18.342 25.2206 18.5 25.6022 18.5 26C18.5 26.3978 18.342 26.7794 18.0607 27.0607C17.7794 27.342 17.3978 27.5 17 27.5C16.6022 27.5 16.2206 27.342 15.9393 27.0607C15.658 26.7794 15.5 26.3978 15.5 26C15.5 25.6022 15.658 25.2206 15.9393 24.9393C16.2206 24.658 16.6022 24.5 17 24.5ZM29 24.5C29.3978 24.5 29.7794 24.658 30.0607 24.9393C30.342 25.2206 30.5 25.6022 30.5 26C30.5 26.3978 30.342 26.7794 30.0607 27.0607C29.7794 27.342 29.3978 27.5 29 27.5C28.6022 27.5 28.2206 27.342 27.9393 27.0607C27.658 26.7794 27.5 26.3978 27.5 26C27.5 25.6022 27.658 25.2206 27.9393 24.9393C28.2206 24.658 28.6022 24.5 29 24.5Z" fill="#EEEEEE"/>
</svg>
