<svg width="28" height="28" viewBox="0 0 28 28" fill="none" xmlns="http://www.w3.org/2000/svg">
<path d="M17.9829 14.5C20.7368 14.5 22.9719 12.148 22.9719 9.25C22.9719 6.352 20.7368 4 17.9829 4C15.229 4 12.9939 6.352 12.9939 9.25C12.9939 12.148 15.229 14.5 17.9829 14.5ZM23.4209 20.38C23.0318 19.96 22.5429 19.75 21.9741 19.75H14.9895L12.9141 18.9835L13.2434 17.9965L14.9895 18.7H17.7834C18.1326 18.7 18.412 18.553 18.6415 18.3115C18.871 18.07 18.9807 17.776 18.9807 17.4505C18.9807 16.8835 18.7213 16.495 18.2024 16.2745L10.9485 13.45H9.00275V22.9L15.9873 25L23.9996 21.85C24.0096 21.2935 23.8101 20.8 23.4209 20.38ZM7.00715 13.45H3V25H7.00715V13.45Z" fill="#666666"/>
</svg>
