<svg width="40" height="40" viewBox="0 0 40 40" fill="none" xmlns="http://www.w3.org/2000/svg">
<circle cx="20" cy="20" r="20" fill="url(#paint0_linear_10_68)"/>
<path d="M14.25 7H24.75C28.75 7 32 10.25 32 14.25V24.75C32 26.6728 31.2362 28.5169 29.8765 29.8765C28.5169 31.2362 26.6728 32 24.75 32H14.25C10.25 32 7 28.75 7 24.75V14.25C7 12.3272 7.76384 10.4831 9.12348 9.12348C10.4831 7.76384 12.3272 7 14.25 7ZM14 9.5C12.8065 9.5 11.6619 9.97411 10.818 10.818C9.97411 11.6619 9.5 12.8065 9.5 14V25C9.5 27.4875 11.5125 29.5 14 29.5H25C26.1935 29.5 27.3381 29.0259 28.182 28.182C29.0259 27.3381 29.5 26.1935 29.5 25V14C29.5 11.5125 27.4875 9.5 25 9.5H14ZM26.0625 11.375C26.4769 11.375 26.8743 11.5396 27.1674 11.8326C27.4604 12.1257 27.625 12.5231 27.625 12.9375C27.625 13.3519 27.4604 13.7493 27.1674 14.0424C26.8743 14.3354 26.4769 14.5 26.0625 14.5C25.6481 14.5 25.2507 14.3354 24.9576 14.0424C24.6646 13.7493 24.5 13.3519 24.5 12.9375C24.5 12.5231 24.6646 12.1257 24.9576 11.8326C25.2507 11.5396 25.6481 11.375 26.0625 11.375ZM19.5 13.25C21.1576 13.25 22.7473 13.9085 23.9194 15.0806C25.0915 16.2527 25.75 17.8424 25.75 19.5C25.75 21.1576 25.0915 22.7473 23.9194 23.9194C22.7473 25.0915 21.1576 25.75 19.5 25.75C17.8424 25.75 16.2527 25.0915 15.0806 23.9194C13.9085 22.7473 13.25 21.1576 13.25 19.5C13.25 17.8424 13.9085 16.2527 15.0806 15.0806C16.2527 13.9085 17.8424 13.25 19.5 13.25ZM19.5 15.75C18.5054 15.75 17.5516 16.1451 16.8483 16.8483C16.1451 17.5516 15.75 18.5054 15.75 19.5C15.75 20.4946 16.1451 21.4484 16.8483 22.1517C17.5516 22.8549 18.5054 23.25 19.5 23.25C20.4946 23.25 21.4484 22.8549 22.1517 22.1517C22.8549 21.4484 23.25 20.4946 23.25 19.5C23.25 18.5054 22.8549 17.5516 22.1517 16.8483C21.4484 16.1451 20.4946 15.75 19.5 15.75Z" fill="#EEEEEE"/>
<defs>
<linearGradient id="paint0_linear_10_68" x1="1.5" y1="-76.5" x2="34.5" y2="74.5" gradientUnits="userSpaceOnUse">
<stop stop-color="#4F5BD5"/>
<stop offset="0.274637" stop-color="#FA7E1E"/>
<stop offset="0.565419" stop-color="#D62976"/>
<stop offset="0.875449" stop-color="#962FBF"/>
<stop offset="1" stop-color="#FEDA75"/>
</linearGradient>
</defs>
</svg>
