<svg width="55" height="55" viewBox="0 0 55 55" fill="none" xmlns="http://www.w3.org/2000/svg">
<g filter="url(#filter0_d_10_136)">
<circle cx="27.5" cy="27.5" r="22.5" fill="#F88551"/>
<rect x="19.9009" y="36.1564" width="22.5991" height="2.64317" fill="#D9D9D9"/>
<rect x="19.9009" y="39.8568" width="22.5991" height="2.64317" fill="#D9D9D9"/>
<rect x="36.1564" y="35.0991" width="22.5991" height="2.64317" transform="rotate(-90 36.1564 35.0991)" fill="#D9D9D9"/>
<rect x="39.8568" y="35.0991" width="22.5991" height="2.64317" transform="rotate(-90 39.8568 35.0991)" fill="#D9D9D9"/>
<rect x="12.5" y="42.5" width="22.5991" height="2.64317" transform="rotate(-90 12.5 42.5)" fill="#D9D9D9"/>
<rect x="16.2004" y="42.5" width="22.5991" height="2.64317" transform="rotate(-90 16.2004 42.5)" fill="#D9D9D9"/>
<rect x="12.5" y="12.5" width="22.5991" height="2.64317" fill="#D9D9D9"/>
<rect x="12.5" y="16.2004" width="22.5991" height="2.64317" fill="#D9D9D9"/>
<path d="M22.668 27.3971L28.5783 21.4868L32.4922 25.4007L26.5819 31.311L22.668 27.3971ZM26.6016 25.4204C26.8629 25.1591 27.2165 25.0117 27.5847 25.0104C27.953 25.0092 28.3056 25.1543 28.5651 25.4138C28.8246 25.6733 28.9697 26.026 28.9685 26.3942C28.9673 26.7625 28.8198 27.1161 28.5586 27.3773C28.2973 27.6386 27.9437 27.7861 27.5754 27.7873C27.2072 27.7885 26.8546 27.6434 26.595 27.3839C26.3355 27.1244 26.1904 26.7717 26.1917 26.4035C26.1929 26.0353 26.3404 25.6816 26.6016 25.4204ZM24.6337 26.736C24.8067 26.909 24.9035 27.1441 24.9026 27.3896C24.9018 27.6351 24.8035 27.8708 24.6293 28.045L25.934 29.3496C26.1081 29.1755 26.3439 29.0772 26.5894 29.0763C26.8349 29.0755 27.07 29.1722 27.243 29.3452L30.5265 26.0618C30.3535 25.8888 30.2567 25.6536 30.2576 25.4082C30.2584 25.1627 30.3567 24.9269 30.5309 24.7527L29.2262 23.4481C29.0521 23.6223 28.8163 23.7206 28.5708 23.7214C28.3253 23.7222 28.0902 23.6255 27.9172 23.4525L24.6337 26.736ZM22.6592 30.0151L23.3159 29.3584L26.5775 32.62L31.8311 27.3664L32.4834 28.0187L26.5731 33.929L22.6592 30.0151Z" fill="#DDDDDD"/>
</g>
<defs>
<filter id="filter0_d_10_136" x="0" y="0" width="55" height="55" filterUnits="userSpaceOnUse" color-interpolation-filters="sRGB">
<feFlood flood-opacity="0" result="BackgroundImageFix"/>
<feColorMatrix in="SourceAlpha" type="matrix" values="0 0 0 0 0 0 0 0 0 0 0 0 0 0 0 0 0 0 127 0" result="hardAlpha"/>
<feOffset/>
<feGaussianBlur stdDeviation="2.5"/>
<feComposite in2="hardAlpha" operator="out"/>
<feColorMatrix type="matrix" values="0 0 0 0 0 0 0 0 0 0 0 0 0 0 0 0 0 0 0.25 0"/>
<feBlend mode="normal" in2="BackgroundImageFix" result="effect1_dropShadow_10_136"/>
<feBlend mode="normal" in="SourceGraphic" in2="effect1_dropShadow_10_136" result="shape"/>
</filter>
</defs>
</svg>
