<svg width="15" height="15" viewBox="0 0 15 15" fill="none" xmlns="http://www.w3.org/2000/svg">
<path d="M5.25 15C5.05109 15 4.86032 14.921 4.71967 14.7803C4.57902 14.6397 4.5 14.4489 4.5 14.25V12H1.5C1.10218 12 0.720644 11.842 0.43934 11.5607C0.158035 11.2794 0 10.8978 0 10.5V1.5C0 0.6675 0.675 0 1.5 0H13.5C13.8978 0 14.2794 0.158035 14.5607 0.43934C14.842 0.720644 15 1.10218 15 1.5V10.5C15 10.8978 14.842 11.2794 14.5607 11.5607C14.2794 11.842 13.8978 12 13.5 12H8.925L6.15 14.7825C6 14.925 5.8125 15 5.625 15H5.25ZM6 10.5V12.81L8.31 10.5H13.5V1.5H1.5V10.5H6Z" fill="#666666"/>
</svg>
