<svg width="28" height="28" viewBox="0 0 28 28" fill="none" xmlns="http://www.w3.org/2000/svg">
<path d="M14.55 11.35H12.45V9.25H14.55M14.55 19.75H12.45V13.45H14.55M13.5 4C12.1211 4 10.7557 4.27159 9.48182 4.79926C8.2079 5.32694 7.05039 6.10036 6.07538 7.07538C4.10625 9.04451 3 11.7152 3 14.5C3 17.2848 4.10625 19.9555 6.07538 21.9246C7.05039 22.8996 8.2079 23.6731 9.48182 24.2007C10.7557 24.7284 12.1211 25 13.5 25C16.2848 25 18.9555 23.8938 20.9246 21.9246C22.8938 19.9555 24 17.2848 24 14.5C24 13.1211 23.7284 11.7557 23.2007 10.4818C22.6731 9.2079 21.8996 8.05039 20.9246 7.07538C19.9496 6.10036 18.7921 5.32694 17.5182 4.79926C16.2443 4.27159 14.8789 4 13.5 4Z" fill="#666666"/>
</svg>
