<svg width="64" height="64" viewBox="0 0 64 64" fill="none" xmlns="http://www.w3.org/2000/svg">
<g filter="url(#filter0_d_10_170)">
<rect x="18.4904" y="47.3892" width="40.1762" height="4.69897" fill="#D9D9D9"/>
<rect x="18.4904" y="53.9678" width="40.1762" height="4.69897" fill="#D9D9D9"/>
<rect x="47.3891" y="45.5095" width="40.1762" height="4.69897" transform="rotate(-90 47.3891 45.5095)" fill="#D9D9D9"/>
<rect x="53.9677" y="45.5095" width="40.1762" height="4.69897" transform="rotate(-90 53.9677 45.5095)" fill="#D9D9D9"/>
<rect x="5.33334" y="58.6667" width="40.1762" height="4.69897" transform="rotate(-90 5.33334 58.6667)" fill="#D9D9D9"/>
<rect x="11.9119" y="58.6667" width="40.1762" height="4.69897" transform="rotate(-90 11.9119 58.6667)" fill="#D9D9D9"/>
<rect x="5.33334" y="5.3335" width="40.1762" height="4.69897" fill="#D9D9D9"/>
<rect x="5.33334" y="11.9119" width="40.1762" height="4.69897" fill="#D9D9D9"/>
<path d="M23.4098 31.8169L33.917 21.3098L40.875 28.2678L30.3679 38.775L23.4098 31.8169ZM30.4029 28.3029C30.8673 27.8384 31.496 27.5763 32.1507 27.5741C32.8053 27.5719 33.4323 27.8298 33.8936 28.2912C34.3549 28.7525 34.6129 29.3795 34.6107 30.0341C34.6085 30.6888 34.3464 31.3174 33.8819 31.7819C33.4175 32.2463 32.7888 32.5085 32.1341 32.5107C31.4795 32.5129 30.8526 32.2549 30.3912 31.7936C29.9299 31.3322 29.6719 30.7053 29.6741 30.0506C29.6763 29.396 29.9385 28.7673 30.4029 28.3029ZM26.9044 30.6417C27.212 30.9492 27.3839 31.3672 27.3825 31.8036C27.381 32.2401 27.2063 32.6592 26.8966 32.9688L29.216 35.2882C29.5256 34.9785 29.9447 34.8038 30.3811 34.8023C30.8176 34.8008 31.2355 34.9728 31.5431 35.2804L37.3804 29.4431C37.0728 29.1355 36.9009 28.7175 36.9023 28.2811C36.9038 27.8447 37.0786 27.4256 37.3882 27.1159L35.0688 24.7966C34.7592 25.1062 34.3401 25.281 33.9037 25.2825C33.4672 25.2839 33.0493 25.1119 32.7417 24.8044L26.9044 30.6417ZM23.3942 36.4712L24.5617 35.3037L30.3601 41.1021L39.6998 31.7624L40.8594 32.9221L30.3523 43.4292L23.3942 36.4712Z" fill="#DDDDDD"/>
</g>
<defs>
<filter id="filter0_d_10_170" x="0.333344" y="0.333252" width="63.3333" height="63.3335" filterUnits="userSpaceOnUse" color-interpolation-filters="sRGB">
<feFlood flood-opacity="0" result="BackgroundImageFix"/>
<feColorMatrix in="SourceAlpha" type="matrix" values="0 0 0 0 0 0 0 0 0 0 0 0 0 0 0 0 0 0 127 0" result="hardAlpha"/>
<feOffset/>
<feGaussianBlur stdDeviation="2.5"/>
<feComposite in2="hardAlpha" operator="out"/>
<feColorMatrix type="matrix" values="0 0 0 0 0 0 0 0 0 0 0 0 0 0 0 0 0 0 0.25 0"/>
<feBlend mode="normal" in2="BackgroundImageFix" result="effect1_dropShadow_10_170"/>
<feBlend mode="normal" in="SourceGraphic" in2="effect1_dropShadow_10_170" result="shape"/>
</filter>
</defs>
</svg>
