<svg width="12" height="5" viewBox="0 0 12 5" fill="none" xmlns="http://www.w3.org/2000/svg">
<path d="M5.99059 4.99831C5.79067 4.99864 5.59692 4.94054 5.44298 4.83411L0.309104 1.26453C0.134367 1.14335 0.0244811 0.969215 0.00362066 0.780437C-0.0172397 0.591658 0.0526339 0.403697 0.19787 0.257904C0.343106 0.11211 0.551808 0.020426 0.778063 0.00302095C1.00432 -0.0143841 1.22959 0.0439153 1.40433 0.165095L5.99059 3.36344L10.5768 0.279322C10.6644 0.22002 10.7651 0.175734 10.8732 0.149011C10.9813 0.122288 11.0946 0.113654 11.2068 0.123605C11.3189 0.133557 11.4275 0.161897 11.5265 0.206998C11.6254 0.252099 11.7127 0.313071 11.7833 0.386409C11.8617 0.459815 11.921 0.545932 11.9576 0.639365C11.9942 0.732798 12.0073 0.831533 11.9961 0.929385C11.9848 1.02724 11.9495 1.1221 11.8923 1.20802C11.835 1.29395 11.7572 1.36908 11.6635 1.42873L6.52964 4.87695C6.37128 4.96655 6.18148 5.00928 5.99059 4.99831Z" fill="#666666"/>
</svg>
