<svg width="28" height="28" viewBox="0 0 28 28" fill="none" xmlns="http://www.w3.org/2000/svg">
<path d="M18.6667 14C21.8867 14 24.5 11.3867 24.5 8.16666C24.5 4.94666 21.8867 2.33333 18.6667 2.33333C15.4467 2.33333 12.8333 4.94666 12.8333 8.16666C12.8333 11.3867 15.4467 14 18.6667 14ZM25.025 20.5333C24.57 20.0667 23.9983 19.8333 23.3333 19.8333H15.1667L12.74 18.9817L13.125 17.885L15.1667 18.6667H18.4333C18.8417 18.6667 19.1683 18.5033 19.4367 18.235C19.705 17.9667 19.8333 17.64 19.8333 17.2783C19.8333 16.6483 19.53 16.2167 18.9233 15.9717L10.4417 12.8333H8.16668V23.3333L16.3333 25.6667L25.7017 22.1667C25.7133 21.5483 25.48 21 25.025 20.5333ZM5.83334 12.8333H1.14801V25.6667H5.83334V12.8333Z" fill="#F08A5D"/>
</svg>
