<svg width="271" height="182" viewBox="0 0 271 182" fill="none" xmlns="http://www.w3.org/2000/svg">
<path d="M151.452 137.423L204.241 28.6001L151.985 3L99.1964 111.823L151.452 137.423Z" fill="#77BA85"/>
<path d="M151.452 137.423L204.241 28.6001L151.985 3L99.1964 111.823L151.452 137.423Z" stroke="#474747" stroke-width="6" stroke-miterlimit="10" stroke-linecap="round" stroke-linejoin="round"/>
<path d="M183.561 25.8898L166.837 17.6876C163.677 24.2413 155.835 26.9352 149.313 23.7588L108.104 108.676L148.393 128.417L189.603 43.5004C183.081 40.324 180.36 32.4435 183.561 25.8898Z" fill="#F6F9EA"/>
<path d="M183.561 25.8898L166.837 17.6876C163.677 24.2413 155.835 26.9352 149.313 23.7588L108.104 108.676L148.393 128.417L189.603 43.5004C183.081 40.324 180.36 32.4435 183.561 25.8898Z" stroke="#474747" stroke-width="6" stroke-miterlimit="10" stroke-linecap="round" stroke-linejoin="round"/>
<path d="M195.34 31.6643L155.06 11.9315L108.11 108.72L148.39 128.452L195.34 31.6643Z" stroke="#474747" stroke-width="6" stroke-miterlimit="10" stroke-linecap="round" stroke-linejoin="round"/>
<path d="M155.715 75.505C163.294 75.505 169.438 69.3309 169.438 61.7141C169.438 54.0977 163.294 47.9231 155.715 47.9231C148.136 47.9231 141.992 54.0977 141.992 61.7141C141.992 69.3309 148.136 75.505 155.715 75.505Z" fill="#77BA85"/>
<path d="M155.715 75.505C163.294 75.505 169.438 69.3309 169.438 61.7141C169.438 54.0977 163.294 47.9231 155.715 47.9231C148.136 47.9231 141.992 54.0977 141.992 61.7141C141.992 69.3309 148.136 75.505 155.715 75.505Z" stroke="#474747" stroke-width="6" stroke-miterlimit="10" stroke-linecap="round" stroke-linejoin="round"/>
<path opacity="0.15" d="M3 178.193H267.86" stroke="#474747" stroke-width="6" stroke-miterlimit="10" stroke-linecap="round" stroke-linejoin="round"/>
<path d="M159.196 178.193H75.1765C61.9335 178.193 51.171 167.378 51.171 154.069V59.1811C51.171 45.8726 61.9335 35.0569 75.1765 35.0569H159.196C172.439 35.0569 183.201 45.8726 183.201 59.1811V154.069C183.201 167.418 172.479 178.193 159.196 178.193Z" fill="#F58870"/>
<path d="M159.196 178.193H75.1765C61.9335 178.193 51.171 167.378 51.171 154.069V59.1811C51.171 45.8726 61.9335 35.0569 75.1765 35.0569H159.196C172.439 35.0569 183.201 45.8726 183.201 59.1811V154.069C183.201 167.418 172.479 178.193 159.196 178.193Z" fill="#F58870"/>
<path d="M159.196 173.329H75.1765C61.9335 173.329 51.171 162.513 51.171 149.205V154.07C51.171 167.378 61.9335 178.194 75.1765 178.194H159.196C172.439 178.194 183.201 167.378 183.201 154.07V149.205C183.201 162.513 172.479 173.329 159.196 173.329Z" fill="#DD7868"/>
<path d="M159.196 35.0569H75.1765C61.9335 35.0569 51.171 44.988 51.171 57.2109V62.3976C51.171 50.1747 61.9335 40.2436 75.1765 40.2436H159.196C172.439 40.2436 183.201 50.1747 183.201 62.3976V57.2109C183.201 44.988 172.479 35.0569 159.196 35.0569Z" fill="#FFA399"/>
<path opacity="0.3" d="M131.189 93.96H109.584C105.623 93.96 102.383 90.7032 102.383 86.7228V42.2942C102.383 38.3137 105.623 35.0569 109.584 35.0569H138.391V86.7228C138.391 90.7032 135.19 93.96 131.189 93.96Z" fill="#474747" stroke="#474747" stroke-width="6" stroke-miterlimit="10" stroke-linecap="round" stroke-linejoin="round"/>
<path d="M159.196 178.193H75.1765C61.9335 178.193 51.171 167.378 51.171 154.069V59.1811C51.171 45.8726 61.9335 35.0569 75.1765 35.0569H159.196C172.439 35.0569 183.201 45.8726 183.201 59.1811V154.069C183.201 167.418 172.479 178.193 159.196 178.193Z" stroke="#474747" stroke-width="6" stroke-miterlimit="10" stroke-linecap="round" stroke-linejoin="round"/>
<g opacity="0.46">
<path opacity="0.46" d="M59.973 153.466V59.7842C59.973 51.3407 66.7746 44.5056 75.1765 44.5056H159.196C167.598 44.5056 174.399 51.3407 174.399 59.7842V153.426C174.399 161.869 167.598 168.705 159.196 168.705H75.1765C66.7746 168.745 59.973 161.91 59.973 153.466Z" stroke="#474747" stroke-width="4" stroke-linecap="round" stroke-linejoin="round" stroke-dasharray="13.96 13.96"/>
</g>
<path d="M127.989 89.5372H106.384C102.423 89.5372 99.182 86.2805 99.182 82.3V33.2476C99.182 29.2672 102.423 26.0104 106.384 26.0104H127.989C131.949 26.0104 135.19 29.2672 135.19 33.2476V82.3C135.19 86.2805 131.989 89.5372 127.989 89.5372Z" fill="#F79765"/>
<path d="M127.989 86.2001H106.384C102.423 86.2001 99.182 82.9433 99.182 78.9628V82.3C99.182 86.2805 102.423 89.5372 106.384 89.5372H127.989C131.949 89.5372 135.19 86.2805 135.19 82.3V78.9628C135.19 82.9433 131.989 86.2001 127.989 86.2001Z" fill="#E27444"/>
<path d="M127.989 26.0104H106.384C102.423 26.0104 99.182 29.2672 99.182 33.2476V35.9817C99.182 32.0012 102.423 28.7445 106.384 28.7445H127.989C131.949 28.7445 135.19 32.0012 135.19 35.9817V33.2476C135.19 29.2672 131.989 26.0104 127.989 26.0104Z" fill="#FFB797"/>
<path d="M127.989 89.5372H106.384C102.423 89.5372 99.182 86.2805 99.182 82.3V33.2476C99.182 29.2672 102.423 26.0104 106.384 26.0104H127.989C131.949 26.0104 135.19 29.2672 135.19 33.2476V82.3C135.19 86.2805 131.989 89.5372 127.989 89.5372Z" stroke="#474747" stroke-width="6" stroke-miterlimit="10" stroke-linecap="round" stroke-linejoin="round"/>
<path opacity="0.3" d="M118.386 79.1639C123.513 79.1639 127.668 74.9876 127.668 69.8359C127.668 64.6842 123.513 60.5079 118.386 60.5079C113.26 60.5079 109.104 64.6842 109.104 69.8359C109.104 74.9876 113.26 79.1639 118.386 79.1639Z" fill="#474747" stroke="#474747" stroke-width="6" stroke-miterlimit="10" stroke-linecap="round" stroke-linejoin="round"/>
<g opacity="0.46">
<path opacity="0.46" d="M106.384 84.7124C105.063 84.7124 103.983 83.6268 103.983 82.3V33.2476C103.983 31.9208 105.063 30.8352 106.384 30.8352H127.989C129.309 30.8352 130.389 31.9208 130.389 33.2476V82.3C130.389 83.6268 129.309 84.7124 127.989 84.7124H106.384Z" stroke="#474747" stroke-width="4" stroke-linecap="round" stroke-linejoin="round" stroke-dasharray="9.84 9.84"/>
</g>
<path d="M117.186 76.7514C122.312 76.7514 126.468 72.5752 126.468 67.4235C126.468 62.2718 122.312 58.0955 117.186 58.0955C112.06 58.0955 107.904 62.2718 107.904 67.4235C107.904 72.5752 112.06 76.7514 117.186 76.7514Z" fill="#8F6D5D"/>
<path d="M117.186 76.7514C122.312 76.7514 126.468 72.5752 126.468 67.4235C126.468 62.2718 122.312 58.0955 117.186 58.0955C112.06 58.0955 107.904 62.2718 107.904 67.4235C107.904 72.5752 112.06 76.7514 117.186 76.7514Z" stroke="#474747" stroke-width="6" stroke-miterlimit="10" stroke-linecap="round" stroke-linejoin="round"/>
<g opacity="0.6">
<path opacity="0.6" d="M121.107 62.6388C121.427 64.1667 119.627 65.1321 116.986 65.695C114.305 66.2177 111.905 66.2981 111.585 65.0114C111.265 63.765 113.065 61.3924 115.706 60.6285C118.386 59.8646 120.787 61.1512 121.107 62.6388Z" fill="#FFFCEE"/>
</g>
<path d="M250.777 178.193H222.77C221.17 178.193 219.849 176.867 219.849 175.258V173.288C219.849 171.68 221.17 170.353 222.77 170.353H250.777C252.377 170.353 253.697 171.68 253.697 173.288V175.258C253.697 176.907 252.377 178.193 250.777 178.193Z" fill="#FDB740"/>
<path opacity="0.88" d="M250.777 171.197H222.77C221.17 171.197 219.849 172.524 219.849 174.132V175.258C219.849 173.65 221.17 172.323 222.77 172.323H250.777C252.377 172.323 253.697 173.65 253.697 175.258V174.132C253.697 172.524 252.377 171.197 250.777 171.197Z" fill="#FFF3C0"/>
<path d="M250.777 177.309H222.77C221.17 177.309 219.849 175.982 219.849 174.374V173.248C219.849 174.856 221.17 176.183 222.77 176.183H250.777C252.377 176.183 253.697 174.856 253.697 173.248V174.374C253.697 176.022 252.377 177.309 250.777 177.309Z" fill="#F29E25"/>
<path d="M250.777 178.193H222.77C221.17 178.193 219.849 176.867 219.849 175.258V173.288C219.849 171.68 221.17 170.353 222.77 170.353H250.777C252.377 170.353 253.697 171.68 253.697 173.288V175.258C253.697 176.907 252.377 178.193 250.777 178.193Z" stroke="#474747" stroke-width="6" stroke-miterlimit="10" stroke-linecap="round" stroke-linejoin="round"/>
<path d="M255.458 170.393H227.451C225.851 170.393 224.531 169.066 224.531 167.458V165.488C224.531 163.88 225.851 162.553 227.451 162.553H255.458C257.058 162.553 258.378 163.88 258.378 165.488V167.458C258.338 169.107 257.058 170.393 255.458 170.393Z" fill="#FDB740"/>
<path opacity="0.88" d="M255.458 163.397H227.451C225.851 163.397 224.531 164.724 224.531 166.332V167.458C224.531 165.849 225.851 164.523 227.451 164.523H255.458C257.058 164.523 258.378 165.849 258.378 167.458V166.332C258.338 164.724 257.058 163.397 255.458 163.397Z" fill="#FFF3C0"/>
<path d="M255.458 169.509H227.451C225.851 169.509 224.531 168.182 224.531 166.574V165.448C224.531 167.056 225.851 168.383 227.451 168.383H255.458C257.058 168.383 258.378 167.056 258.378 165.448V166.574C258.338 168.222 257.058 169.509 255.458 169.509Z" fill="#F29E25"/>
<path d="M255.458 170.393H227.451C225.851 170.393 224.531 169.066 224.531 167.458V165.488C224.531 163.88 225.851 162.553 227.451 162.553H255.458C257.058 162.553 258.378 163.88 258.378 165.488V167.458C258.338 169.107 257.058 170.393 255.458 170.393Z" stroke="#474747" stroke-width="6" stroke-miterlimit="10" stroke-linecap="round" stroke-linejoin="round"/>
<path d="M250.777 162.593H222.77C221.17 162.593 219.849 161.266 219.849 159.658V157.688C219.849 156.08 221.17 154.753 222.77 154.753H250.777C252.377 154.753 253.697 156.08 253.697 157.688V159.658C253.697 161.306 252.377 162.593 250.777 162.593Z" fill="#FDB740"/>
<path opacity="0.88" d="M250.777 155.638H222.77C221.17 155.638 219.849 156.965 219.849 158.573V159.699C219.849 158.09 221.17 156.763 222.77 156.763H250.777C252.377 156.763 253.697 158.09 253.697 159.699V158.573C253.697 156.924 252.377 155.638 250.777 155.638Z" fill="#FFF3C0"/>
<path d="M250.777 161.749H222.77C221.17 161.749 219.849 160.422 219.849 158.814V157.688C219.849 159.296 221.17 160.623 222.77 160.623H250.777C252.377 160.623 253.697 159.296 253.697 157.688V158.814C253.697 160.422 252.377 161.749 250.777 161.749Z" fill="#F29E25"/>
<path d="M250.777 162.593H222.77C221.17 162.593 219.849 161.266 219.849 159.658V157.688C219.849 156.08 221.17 154.753 222.77 154.753H250.777C252.377 154.753 253.697 156.08 253.697 157.688V159.658C253.697 161.306 252.377 162.593 250.777 162.593Z" stroke="#474747" stroke-width="6" stroke-miterlimit="10" stroke-linecap="round" stroke-linejoin="round"/>
<path d="M219.089 156.723L199.965 177.269C198.885 178.435 197.044 178.515 195.844 177.389L194.444 176.062C193.283 174.977 193.203 173.127 194.324 171.921L213.448 151.375C214.528 150.209 216.369 150.129 217.569 151.255L218.969 152.582C220.09 153.707 220.17 155.517 219.089 156.723Z" fill="#FDB740"/>
<path d="M218.449 156.12L199.325 176.665C198.245 177.831 196.404 177.912 195.204 176.786L194.364 176.022C195.524 177.108 197.364 177.068 198.485 175.902L217.609 155.356C218.689 154.19 218.649 152.34 217.489 151.215L218.329 151.978C219.449 153.104 219.529 154.954 218.449 156.12Z" fill="#F29E25"/>
<path d="M219.089 156.723L199.965 177.269C198.885 178.435 197.044 178.515 195.844 177.389L194.444 176.062C193.283 174.977 193.203 173.127 194.324 171.921L213.448 151.375C214.528 150.209 216.369 150.129 217.569 151.255L218.969 152.582C220.09 153.707 220.17 155.517 219.089 156.723Z" stroke="#474747" stroke-width="6" stroke-miterlimit="10" stroke-linecap="round" stroke-linejoin="round"/>
</svg>
