<svg width="45" height="45" viewBox="0 0 45 45" fill="none" xmlns="http://www.w3.org/2000/svg">
<path d="M45 22.5C45 34.9264 34.9264 45 22.5 45C10.0736 45 0 34.9264 0 22.5C0 10.0736 10.0736 0 22.5 0C34.9264 0 45 10.0736 45 22.5Z" fill="#FFA07A"/>
<path d="M31.57 25.86L33 24.43L31.57 23L28 26.57L19.43 18L23 14.43L21.57 13L20.14 14.43L18.71 13L16.57 15.14L15.14 13.71L13.71 15.14L15.14 16.57L13 18.71L14.43 20.14L13 21.57L14.43 23L18 19.43L26.57 28L23 31.57L24.43 33L25.86 31.57L27.29 33L29.43 30.86L30.86 32.29L32.29 30.86L30.86 29.43L33 27.29L31.57 25.86Z" fill="#EEEEEE"/>
</svg>
