<svg width="45" height="45" viewBox="0 0 45 45" fill="none" xmlns="http://www.w3.org/2000/svg">
<path d="M45 22.5C45 34.9264 34.9264 45 22.5 45C10.0736 45 0 34.9264 0 22.5C0 10.0736 10.0736 0 22.5 0C34.9264 0 45 10.0736 45 22.5Z" fill="#A8D271"/>
<path d="M31 21.0001C33 24.0001 28 33 26 33C24 33 24 32 23 32C22 32 22 33 20 33C18 33 13 24.0001 15 21.0001C17 18.0001 20 18.0001 22 19.0001V16.0001C16.38 19.0701 15.11 14.7801 15.11 14.7801C15.11 14.7801 17.77 11.1901 22 16.0001V14.0001H24V19.0001C26 18.0001 29 18.0001 31 21.0001Z" fill="#EEEEEE"/>
</svg>
