<svg width="45" height="45" viewBox="0 0 45 45" fill="none" xmlns="http://www.w3.org/2000/svg">
<path d="M45 22.5C45 34.9264 34.9264 45 22.5 45C10.0736 45 0 34.9264 0 22.5C0 10.0736 10.0736 0 22.5 0C34.9264 0 45 10.0736 45 22.5Z" fill="#6B8E23"/>
<path d="M16.5 32C15.72 32 15.04 31.55 14.71 30.9L12.1 21.44L12 21C12 20.7348 12.1054 20.4804 12.2929 20.2929C12.4804 20.1054 12.7348 20 13 20H17.58L22.18 13.43C22.36 13.17 22.66 13 23 13C23.34 13 23.65 13.17 23.83 13.44L28.42 20H33C33.2652 20 33.5196 20.1054 33.7071 20.2929C33.8946 20.4804 34 20.7348 34 21L33.96 21.29L31.29 30.9C30.96 31.55 30.28 32 29.5 32H16.5ZM23 15.74L20 20H26L23 15.74ZM23 24C22.4696 24 21.9609 24.2107 21.5858 24.5858C21.2107 24.9609 21 25.4696 21 26C21 26.5304 21.2107 27.0391 21.5858 27.4142C21.9609 27.7893 22.4696 28 23 28C23.5304 28 24.0391 27.7893 24.4142 27.4142C24.7893 27.0391 25 26.5304 25 26C25 25.4696 24.7893 24.9609 24.4142 24.5858C24.0391 24.2107 23.5304 24 23 24Z" fill="#EEEEEE"/>
</svg>
