<svg width="45" height="45" viewBox="0 0 45 45" fill="none" xmlns="http://www.w3.org/2000/svg">
<path d="M45 22.5C45 34.9264 34.9264 45 22.5 45C10.0736 45 0 34.9264 0 22.5C0 10.0736 10.0736 0 22.5 0C34.9264 0 45 10.0736 45 22.5Z" fill="#808080"/>
<path d="M21 30H24V33H21V30ZM23 13C28.35 13.22 30.68 18.62 27.5 22.67C26.67 23.67 25.33 24.33 24.67 25.17C24 26 24 27 24 28H21C21 26.33 21 24.92 21.67 23.92C22.33 22.92 23.67 22.33 24.5 21.67C26.92 19.43 26.32 16.26 23 16C22.2044 16 21.4413 16.3161 20.8787 16.8787C20.3161 17.4413 20 18.2044 20 19H17C17 17.4087 17.6321 15.8826 18.7574 14.7574C19.8826 13.6321 21.4087 13 23 13Z" fill="#EEEEEE"/>
</svg>
